<svg xmlns="http://www.w3.org/2000/svg" viewBox="0 0 32 32" width="32" height="32" shape-rendering="crispEdges">
  <rect x="2" y="0" width="28" height="32" fill="#F8EDE3"/>
  <rect x="0" y="2" width="32" height="28" fill="#F8EDE3"/>
  <rect x="1" y="1" width="30" height="30" fill="#F8EDE3"/>
  <rect x="3" y="16" width="26" height="13" fill="#4B2A21"/>
  <rect x="5" y="18" width="22" height="9" fill="#B04F33"/>
  <rect x="4" y="2" width="24" height="2" fill="#4B2A21"/>
  <rect x="6" y="2" width="20" height="2" fill="#B04F33"/>
  <rect x="6" y="4" width="20" height="2" fill="#4B2A21"/>
  <rect x="8" y="4" width="16" height="2" fill="#B04F33"/>
  <rect x="8" y="6" width="16" height="2" fill="#4B2A21"/>
  <rect x="10" y="6" width="12" height="2" fill="#B04F33"/>
  <rect x="10" y="8" width="12" height="2" fill="#4B2A21"/>
  <rect x="12" y="8" width="8" height="2" fill="#B04F33"/>
  <rect x="12" y="10" width="8" height="2" fill="#4B2A21"/>
  <rect x="14" y="12" width="4" height="2" fill="#4B2A21"/>
  <rect x="14" y="14" width="4" height="2" fill="#F8EDE3"/>
  <rect x="13" y="20" width="2" height="6" fill="#FFF8F0"/>
  <rect x="15" y="21" width="2" height="4" fill="#FFF8F0"/>
  <rect x="17" y="22" width="2" height="2" fill="#FFF8F0"/>
</svg>
